<?xml version="1.0" encoding="utf-8"?>
<!-- Generator: Adobe Illustrator 25.0.0, SVG Export Plug-In . SVG Version: 6.00 Build 0)  -->
<svg version="1.1" id="Lager_1" xmlns="http://www.w3.org/2000/svg" xmlns:xlink="http://www.w3.org/1999/xlink" x="0px" y="0px"
	 viewBox="0 0 1417.32 1417.32" style="enable-background:new 0 0 1417.32 1417.32;" xml:space="preserve">
<style type="text/css">
	.st0{fill:#FFFFFF;}
</style>
<circle cx="671.46" cy="757.35" r="20.81"/>
<circle cx="704.38" cy="798.09" r="9.58"/>
<circle cx="719.68" cy="778.85" r="9.58"/>
<path d="M743.1,798.09c0,5.28-4.29,9.58-9.57,9.58c-5.29,0-9.58-4.3-9.58-9.58c0-5.28,4.29-9.58,9.58-9.58
	C738.81,788.51,743.1,792.81,743.1,798.09z"/>
<circle cx="765.26" cy="757.35" r="20.81"/>
<path d="M851.86,528.67H581.9c-12.64,0-22.89,10.25-22.89,22.88v269.96c0,12.63,10.25,22.88,22.89,22.88h269.96
	c12.63,0,22.88-10.25,22.88-22.88V551.55C874.74,538.92,864.49,528.67,851.86,528.67z M788.07,582.88c2.02-2.09,5.36-2.15,7.46-0.13
	c18.35,17.74,39.67,49.34,36.95,99.14c-0.15,2.81-2.48,4.98-5.26,4.98h-0.29c-2.91-0.16-5.14-2.65-4.98-5.56
	c2.5-45.82-16.97-74.76-33.75-90.97C786.11,588.31,786.05,584.97,788.07,582.88z M760.71,558.71c3.64,0,6.59,2.95,6.59,6.59
	s-2.95,6.59-6.59,6.59c-3.64,0-6.6-2.95-6.6-6.59S757.07,558.71,760.71,558.71z M838.1,729.28c-0.47,1.09-9.38,16.83-10.39,18.2
	c-1.47,1.96-2.56,3.51-3.53,4.88c-3.31,4.67-5.13,7.25-13.96,15.74c-6.28,6.02-12.13,10.7-18.33,14.68
	c-0.46,0.67-0.84,1.36-1.14,2.05c-2.99,6.98-4.83,14.36-5.47,21.95c-0.14,1.72-1.17,3.25-2.71,4.03l-8.06,4.11
	c-0.05,0.03-0.1,0.06-0.16,0.08c-17.16,8-35.53,12.05-54.6,12.05c-22.03,0-43.79-5.63-62.91-16.29c-1.45-0.81-2.41-2.29-2.55-3.94
	c-0.29-3.33-0.81-6.66-1.55-9.91c-0.72-3.14-1.68-6.31-2.85-9.39c-0.88-2.32-2.15-4.49-3.77-6.48
	c-31.82-22.04-51.97-56.65-55.33-95.08c0-0.04-0.01-0.08-0.01-0.13c-0.33-3.79-0.5-7.6-0.5-11.34c0-34.61,13.48-67.14,37.94-91.61
	c24.47-24.46,57-37.94,91.61-37.94c2.77,0,5,2.24,5,5c0,2.47-1.79,4.52-4.14,4.93c-32.76,6.36-58.54,22.97-74.53,48.05
	c-10.22,16.02-16,35.02-16.71,54.95c-0.63,17.62,2.95,34.99,9.82,47.67c3.26,6,7.06,10.69,11.22,13.91
	c4.16,3.23,8.68,4.98,13.36,5.12c1.22-0.22,4.05-0.74,7.78-0.74c6.72,0,16.41,1.72,24.45,9.92c2.42,2.47,4.41,5.08,5.91,7.77
	c3.23,4.47,6.37,7.4,17.89,7.65c6.8-0.01,13.12-2.76,17.78-7.74c0.01-0.01,0.02-0.01,0.02-0.02c9.93-11.66,19.96-17.57,29.81-17.57
	c9.19,0,17.83,3.58,24.34,10.08c0.79,0.8,1.59,1.76,2.43,2.78c1.64,1.97,3.68,4.43,5.57,5.41c3,1.57,4.66,2.09,6.58,2.09
	c1.37,0,3.02-0.29,5.03-0.91c2.01-0.6,7.03-3.88,18.04-18.96c0.97-1.33,2.49-2.05,4.04-2.05c0.85,0,1.71,0.21,2.49,0.66
	C838.22,724.21,839.12,726.94,838.1,729.28z"/>
<g>
	<circle class="st0" cx="671.46" cy="757.35" r="20.81"/>
	<circle class="st0" cx="704.38" cy="798.09" r="9.58"/>
	<circle class="st0" cx="719.68" cy="778.85" r="9.58"/>
	<path class="st0" d="M743.1,798.09c0,5.28-4.29,9.58-9.57,9.58c-5.29,0-9.58-4.3-9.58-9.58c0-5.28,4.29-9.58,9.58-9.58
		C738.81,788.51,743.1,792.81,743.1,798.09z"/>
	<circle class="st0" cx="765.26" cy="757.35" r="20.81"/>
</g>
<g>
	<circle cx="704.38" cy="798.09" r="9.58"/>
</g>
<g>
	<ellipse transform="matrix(0.1602 -0.9871 0.9871 0.1602 -164.3927 1364.4867)" cx="719.68" cy="778.85" rx="9.58" ry="9.58"/>
</g>
<g>
	<path d="M743.1,798.09c0,5.28-4.29,9.58-9.57,9.58c-5.29,0-9.58-4.3-9.58-9.58c0-5.28,4.29-9.58,9.58-9.58
		C738.81,788.51,743.1,792.81,743.1,798.09z"/>
</g>
<g>
	<circle cx="765.26" cy="757.35" r="20.81"/>
</g>
<g>
	<circle cx="671.46" cy="757.35" r="20.81"/>
</g>
</svg>
