<svg xmlns="http://www.w3.org/2000/svg" viewBox="0 0 315.73 315.72"><defs><style>.cls-1{fill:#fff;}</style></defs><g id="Layer_2" data-name="Layer 2"><g id="Lager_1" data-name="Lager 1"><circle cx="112.45" cy="228.68" r="20.81"/><circle cx="145.37" cy="269.42" r="9.58"/><circle cx="160.67" cy="250.18" r="9.58"/><path d="M184.09,269.42a9.58,9.58,0,1,1-9.57-9.58A9.59,9.59,0,0,1,184.09,269.42Z"/><circle cx="206.25" cy="228.68" r="20.81"/><path d="M292.85,0h-270A22.89,22.89,0,0,0,0,22.88v270a22.89,22.89,0,0,0,22.89,22.88h270a22.89,22.89,0,0,0,22.88-22.88v-270A22.89,22.89,0,0,0,292.85,0ZM229.06,54.21a5.28,5.28,0,0,1,7.46-.13c18.35,17.74,39.67,49.34,37,99.14a5.27,5.27,0,0,1-5.26,5h-.29a5.28,5.28,0,0,1-5-5.56c2.5-45.82-17-74.76-33.75-91A5.29,5.29,0,0,1,229.06,54.21ZM201.7,30a6.59,6.59,0,1,1-6.6,6.59A6.59,6.59,0,0,1,201.7,30Zm77.39,170.57c-.47,1.09-9.38,16.83-10.39,18.2-1.47,2-2.56,3.51-3.53,4.88-3.31,4.67-5.13,7.25-14,15.74a119.27,119.27,0,0,1-18.33,14.68,12.29,12.29,0,0,0-1.14,2.05,70.72,70.72,0,0,0-5.47,21.95,5,5,0,0,1-2.71,4l-8.06,4.11-.16.08a129.67,129.67,0,0,1-117.51-4.24,5,5,0,0,1-2.55-3.94,73.48,73.48,0,0,0-1.55-9.91,71.72,71.72,0,0,0-2.85-9.39,23.41,23.41,0,0,0-3.77-6.48,129,129,0,0,1-55.33-95.08s0-.08,0-.13c-.33-3.79-.5-7.6-.5-11.34A129.54,129.54,0,0,1,160.82,16.27a5,5,0,0,1,.86,9.93c-32.76,6.36-58.54,23-74.53,48.05A109.32,109.32,0,0,0,70.44,129.2c-.63,17.62,3,35,9.82,47.67a43.79,43.79,0,0,0,11.22,13.91,22.77,22.77,0,0,0,13.36,5.12,42.15,42.15,0,0,1,7.78-.74,33.56,33.56,0,0,1,24.45,9.92,36.84,36.84,0,0,1,5.91,7.77c3.23,4.47,6.37,7.4,17.89,7.65a24.18,24.18,0,0,0,17.78-7.74l0,0c9.93-11.66,20-17.57,29.81-17.57a34.22,34.22,0,0,1,24.34,10.08c.79.8,1.59,1.76,2.43,2.78,1.64,2,3.68,4.43,5.57,5.41,3,1.57,4.66,2.09,6.58,2.09a17.44,17.44,0,0,0,5-.91c2-.6,7-3.88,18-19a5,5,0,0,1,8.62,5Z"/><circle class="cls-1" cx="112.45" cy="228.68" r="20.81"/><circle class="cls-1" cx="145.37" cy="269.42" r="9.58"/><circle class="cls-1" cx="160.67" cy="250.18" r="9.58"/><path class="cls-1" d="M184.09,269.42a9.58,9.58,0,1,1-9.57-9.58A9.59,9.59,0,0,1,184.09,269.42Z"/><circle class="cls-1" cx="206.25" cy="228.68" r="20.81"/><circle cx="145.37" cy="269.42" r="9.58"/><circle cx="160.69" cy="250.19" r="9.58"/><path d="M184.09,269.42a9.58,9.58,0,1,1-9.57-9.58A9.59,9.59,0,0,1,184.09,269.42Z"/><circle cx="206.25" cy="228.68" r="20.81"/><circle cx="112.45" cy="228.68" r="20.81"/></g></g></svg>